<svg xmlns="http://www.w3.org/2000/svg" xmlns:xlink="http://www.w3.org/1999/xlink" aria-hidden="true" role="img" class="iconify iconify--logos" width="31.88" height="32" preserveAspectRatio="xMidYMid meet" viewBox="0 0 256 257"><defs><linearGradient id="IconifyId1813088fe1fbc01fb466" x1="-.828%" x2="57.636%" y1="7.652%" y2="78.411%"><stop offset="0%" stop-color="#41D1FF"></stop><stop offset="100%" stop-color="#BD34FE"></stop></linearGradient><linearGradient id="IconifyId1813088fe1fbc01fb467" x1="43.376%" x2="50.316%" y1="2.242%" y2="89.03%"><stop offset="0%" stop-color="#FFBD4F"></stop><stop offset="100%" stop-color="#FF980E"></stop></linearGradient></defs><path fill="url(#IconifyId1813088fe1fbc01fb466)" d="M255.153 37.938L134.897 252.976c-2.483 4.44-8.133 4.466-10.65.048L.875 37.958c-2.746-4.814 1.371-10.646 6.827-9.67l120.375 21.517a6.153 6.153 0 0 0 2.196-.004l117.966-21.502c5.438-.991 9.574 4.796 6.914 9.639Z"></path><path fill="url(#IconifyId1813088fe1fbc01fb467)" d="M185.432.063L96.44 17.501a3.077 3.077 0 0 0-2.489 3.027v224.098c0 2.666 3.171 4.098 5.215 2.372l.095-.085l73.08-61.504a3.078 3.078 0 0 0 1.109-2.372V2.995c0-1.956-1.784-3.385-3.694-3.005l-.324.073Z"></path></svg>
